<?xml version="1.0" encoding="UTF-8"?>
<!DOCTYPE svg PUBLIC "-//W3C//DTD SVG 1.1//EN" "http://www.w3.org/Graphics/SVG/1.1/DTD/svg11.dtd">
<svg xmlns="http://www.w3.org/2000/svg" version="1.1" width="512px" height="512px" style="shape-rendering:geometricPrecision; text-rendering:geometricPrecision; image-rendering:optimizeQuality; fill-rule:evenodd; clip-rule:evenodd" xmlns:xlink="http://www.w3.org/1999/xlink">
<g><path style="opacity:1" fill="#fede58" d="M 232.5,-0.5 C 247.833,-0.5 263.167,-0.5 278.5,-0.5C 312.358,2.96526 344.358,12.6319 374.5,28.5C 295.167,28.5 215.833,28.5 136.5,28.5C 166.642,12.6319 198.642,2.96526 232.5,-0.5 Z"/></g>
<g><path style="opacity:0.994" fill="#6b6888" d="M 136.5,28.5 C 215.833,28.5 295.167,28.5 374.5,28.5C 409.502,28.3333 444.502,28.5 479.5,29C 492.446,32.2791 500.279,40.4458 503,53.5C 503.5,99.4988 503.667,145.499 503.5,191.5C 503.5,234.167 503.5,276.833 503.5,319.5C 496.689,348.638 484.689,375.305 467.5,399.5C 326.167,399.5 184.833,399.5 43.5,399.5C 28.5209,378.537 17.5209,355.537 10.5,330.5C 10.8322,280.664 10.4989,230.997 9.5,181.5C 9.33334,139.832 9.50001,98.1653 10,56.5C 12.1538,42.0111 20.3205,32.8445 34.5,29C 68.4984,28.5 102.498,28.3333 136.5,28.5 Z"/></g>
<g><path style="opacity:1" fill="#564d6f" d="M 101.5,48.5 C 98.7855,88.5295 101.619,128.196 110,167.5C 110.738,171.11 111.905,174.443 113.5,177.5C 113.167,178.167 112.833,178.833 112.5,179.5C 109.569,184.03 110.569,187.696 115.5,190.5C 116.306,191.728 117.306,192.728 118.5,193.5C 117.957,193.56 117.624,193.893 117.5,194.5C 119.762,200.785 121.928,207.118 124,213.5C 125.685,218.204 127.852,222.538 130.5,226.5C 130.167,227.167 129.833,227.833 129.5,228.5C 127.254,230.649 125.754,233.316 125,236.5C 124.333,252.167 124.333,267.833 125,283.5C 128.566,296.06 136.899,302.06 150,301.5C 155.01,301.677 159.844,300.844 164.5,299C 167.043,297.618 169.043,295.785 170.5,293.5C 170.833,293.5 171.167,293.5 171.5,293.5C 171.351,294.552 171.517,295.552 172,296.5C 198.23,326.342 229.063,350.009 264.5,367.5C 189.166,367.667 113.833,367.5 38.5,367C 33.8837,364.382 30.717,360.549 29,355.5C 28.3333,257.167 28.3333,158.833 29,60.5C 30.4101,55.1603 33.5768,51.327 38.5,49C 59.4974,48.5 80.4974,48.3334 101.5,48.5 Z"/></g>
<g><path style="opacity:1" fill="#463f5b" d="M 101.5,48.5 C 225.834,48.3333 350.167,48.5 474.5,49C 479.147,51.1058 482.314,54.6058 484,59.5C 484.667,157.833 484.667,256.167 484,354.5C 482.643,360.52 479.143,364.686 473.5,367C 403.834,367.5 334.167,367.667 264.5,367.5C 229.063,350.009 198.23,326.342 172,296.5C 171.517,295.552 171.351,294.552 171.5,293.5C 173.866,290.248 175.366,286.581 176,282.5C 176.667,275.167 176.667,267.833 176,260.5C 175.5,260 175,259.5 174.5,259C 166.5,258.333 158.5,258.333 150.5,259C 149.695,260.113 149.028,261.279 148.5,262.5C 145.001,258.173 142.001,253.506 139.5,248.5C 138.424,233.917 144.757,229.251 158.5,234.5C 159.333,235.5 160.167,236.5 161,237.5C 161.629,247.604 166.462,250.271 175.5,245.5C 177.648,230.358 170.981,221.858 155.5,220C 145.977,218.014 137.644,220.181 130.5,226.5C 127.852,222.538 125.685,218.204 124,213.5C 121.928,207.118 119.762,200.785 117.5,194.5C 117.624,193.893 117.957,193.56 118.5,193.5C 130.246,198.994 141.913,198.827 153.5,193C 164.229,182.917 166.063,171.417 159,158.5C 151.202,151.68 142.369,146.513 132.5,143C 125.437,136.708 126.104,131.375 134.5,127C 140.515,125.965 146.182,126.965 151.5,130C 159.195,131.509 162.028,128.342 160,120.5C 156.121,117.314 151.621,115.48 146.5,115C 135.063,112.593 125.23,115.427 117,123.5C 112.685,131.587 112.352,139.92 116,148.5C 118.167,150.667 120.333,152.833 122.5,155C 130.293,158.73 137.959,162.73 145.5,167C 150.975,177.535 147.642,183.369 135.5,184.5C 129.192,183.513 123.859,180.679 119.5,176C 117.16,175.252 115.16,175.752 113.5,177.5C 111.905,174.443 110.738,171.11 110,167.5C 101.619,128.196 98.7855,88.5295 101.5,48.5 Z"/></g>
<g><path style="opacity:1" fill="#e954a7" d="M 118.5,193.5 C 117.306,192.728 116.306,191.728 115.5,190.5C 115.074,186.573 114.074,182.907 112.5,179.5C 112.833,178.833 113.167,178.167 113.5,177.5C 115.16,175.752 117.16,175.252 119.5,176C 123.859,180.679 129.192,183.513 135.5,184.5C 147.642,183.369 150.975,177.535 145.5,167C 137.959,162.73 130.293,158.73 122.5,155C 120.333,152.833 118.167,150.667 116,148.5C 112.352,139.92 112.685,131.587 117,123.5C 125.23,115.427 135.063,112.593 146.5,115C 151.621,115.48 156.121,117.314 160,120.5C 162.028,128.342 159.195,131.509 151.5,130C 146.182,126.965 140.515,125.965 134.5,127C 126.104,131.375 125.437,136.708 132.5,143C 142.369,146.513 151.202,151.68 159,158.5C 166.063,171.417 164.229,182.917 153.5,193C 141.913,198.827 130.246,198.994 118.5,193.5 Z"/></g>
<g><path style="opacity:1" fill="#e954a7" d="M 245.5,114.5 C 249.605,114.234 253.605,114.734 257.5,116C 258.701,116.903 259.535,118.069 260,119.5C 267.202,142.106 274.202,164.773 281,187.5C 282.091,192.098 280.257,194.931 275.5,196C 272.653,196.944 270.153,196.444 268,194.5C 266.599,189.465 265.099,184.465 263.5,179.5C 254.833,178.167 246.167,178.167 237.5,179.5C 236.026,185.257 234.026,190.757 231.5,196C 227.018,197.011 223.184,195.844 220,192.5C 219.333,190.833 219.333,189.167 220,187.5C 227.026,164.062 234.359,140.728 242,117.5C 243.145,116.364 244.312,115.364 245.5,114.5 Z"/></g>
<g><path style="opacity:1" fill="#e754a6" d="M 169.5,115.5 C 186.837,115.333 204.17,115.5 221.5,116C 224.383,120.269 224.05,124.269 220.5,128C 214.843,128.499 209.176,128.666 203.5,128.5C 203.667,149.836 203.5,171.169 203,192.5C 198.665,197.333 193.998,197.666 189,193.5C 188.5,171.836 188.333,150.169 188.5,128.5C 182.491,128.666 176.491,128.499 170.5,128C 166.933,124.097 166.6,119.931 169.5,115.5 Z"/></g>
<g><path style="opacity:1" fill="#eb54a8" d="M 290.5,115.5 C 303.228,115.08 315.894,115.58 328.5,117C 338.143,120.604 342.809,127.604 342.5,138C 342.487,149.05 337.487,156.717 327.5,161C 332.46,169.753 337.294,178.587 342,187.5C 341.902,194.992 338.069,197.826 330.5,196C 324.451,185.403 318.784,174.57 313.5,163.5C 310.232,162.513 306.898,162.18 303.5,162.5C 303.666,172.839 303.5,183.172 303,193.5C 298.594,197.423 294.261,197.423 290,193.5C 289.177,167.428 289.343,141.428 290.5,115.5 Z"/></g>
<g><path style="opacity:1" fill="#ec54a8" d="M 399.5,127.5 C 393.5,127.5 387.5,127.5 381.5,127.5C 381.5,149.167 381.5,170.833 381.5,192.5C 378.751,196.171 375.084,197.337 370.5,196C 369.29,194.961 368.29,193.794 367.5,192.5C 367.5,170.833 367.5,149.167 367.5,127.5C 361.5,127.5 355.5,127.5 349.5,127.5C 347.078,126.308 346.078,124.308 346.5,121.5C 346.326,119.307 346.993,117.473 348.5,116C 365.833,115.333 383.167,115.333 400.5,116C 403.375,120.217 403.041,124.05 399.5,127.5 Z"/></g>
<g><path style="opacity:1" fill="#493f5c" d="M 303.5,127.5 C 309.925,127.13 316.258,127.63 322.5,129C 328.496,134.959 329.163,141.626 324.5,149C 322.913,149.862 321.246,150.529 319.5,151C 314.177,151.499 308.844,151.666 303.5,151.5C 303.5,143.5 303.5,135.5 303.5,127.5 Z"/></g>
<g><path style="opacity:1" fill="#7c4674" d="M 349.5,127.5 C 355.5,127.5 361.5,127.5 367.5,127.5C 367.5,149.167 367.5,170.833 367.5,192.5C 366.503,171.34 366.169,150.007 366.5,128.5C 360.642,128.822 354.975,128.489 349.5,127.5 Z"/></g>
<g><path style="opacity:1" fill="#6e446d" d="M 399.5,127.5 C 394.025,128.489 388.358,128.822 382.5,128.5C 382.831,150.007 382.497,171.34 381.5,192.5C 381.5,170.833 381.5,149.167 381.5,127.5C 387.5,127.5 393.5,127.5 399.5,127.5 Z"/></g>
<g><path style="opacity:1" fill="#4d405e" d="M 249.5,134.5 C 250.586,134.62 251.253,135.287 251.5,136.5C 254.639,146.723 257.306,157.056 259.5,167.5C 253.132,167.83 246.798,167.496 240.5,166.5C 243.911,155.937 246.911,145.27 249.5,134.5 Z"/></g>
<g><path style="opacity:1" fill="#ec7fbd" d="M 112.5,179.5 C 114.074,182.907 115.074,186.573 115.5,190.5C 110.569,187.696 109.569,184.03 112.5,179.5 Z"/></g>
<g><path style="opacity:1" fill="#e4c962" d="M 9.5,181.5 C 10.4989,230.997 10.8322,280.664 10.5,330.5C 9.38815,328.401 8.72148,326.067 8.5,323.5C 9.83333,278.167 9.83333,232.833 8.5,187.5C 8.83333,185.5 9.16667,183.5 9.5,181.5 Z"/></g>
<g><path style="opacity:1" fill="#fdde5c" d="M 8.5,187.5 C 9.83333,232.833 9.83333,278.167 8.5,323.5C 4.10018,308.765 1.10018,293.765 -0.5,278.5C -0.5,263.167 -0.5,247.833 -0.5,232.5C 1.10003,217.236 4.10003,202.236 8.5,187.5 Z"/></g>
<g><path style="opacity:1" fill="#fdde5d" d="M 503.5,191.5 C 507.352,204.948 510.019,218.615 511.5,232.5C 511.5,247.833 511.5,263.167 511.5,278.5C 510.019,292.385 507.352,306.052 503.5,319.5C 503.5,276.833 503.5,234.167 503.5,191.5 Z"/></g>
<g><path style="opacity:1" fill="#40bbd8" d="M 139.5,248.5 C 139.5,258.833 139.5,269.167 139.5,279.5C 138.669,268.341 138.169,257.007 138,245.5C 135.121,239.741 132.287,234.075 129.5,228.5C 129.833,227.833 130.167,227.167 130.5,226.5C 137.644,220.181 145.977,218.014 155.5,220C 170.981,221.858 177.648,230.358 175.5,245.5C 166.462,250.271 161.629,247.604 161,237.5C 160.167,236.5 159.333,235.5 158.5,234.5C 144.757,229.251 138.424,233.917 139.5,248.5 Z"/></g>
<g><path style="opacity:1" fill="#3fbcd9" d="M 209.5,218.5 C 215.448,217.528 219.948,219.528 223,224.5C 230.167,247.833 237.333,271.167 244.5,294.5C 241.64,300.272 237.14,301.938 231,299.5C 229.599,294.465 228.099,289.465 226.5,284.5C 217.853,283.335 209.186,283.168 200.5,284C 198.952,289.545 196.952,294.878 194.5,300C 189.744,301.444 185.911,300.277 183,296.5C 182.333,294.833 182.333,293.167 183,291.5C 190,268.833 197,246.167 204,223.5C 205.352,221.251 207.185,219.584 209.5,218.5 Z"/></g>
<g><path style="opacity:1" fill="#3fbdda" d="M 302.5,297.5 C 302.667,281.163 302.5,264.83 302,248.5C 301.283,249.044 300.783,249.711 300.5,250.5C 296.679,257.473 292.846,264.473 289,271.5C 285.667,275.5 282.333,275.5 279,271.5C 275.255,263.676 271.255,256.009 267,248.5C 266.667,264.833 266.333,281.167 266,297.5C 264.36,299.923 262.027,300.923 259,300.5C 256.019,300.919 253.686,299.919 252,297.5C 251.333,273.167 251.333,248.833 252,224.5C 255.274,219.262 259.774,218.096 265.5,221C 266.667,222.167 267.833,223.333 269,224.5C 274,233.5 279,242.5 284,251.5C 289.539,240.917 295.705,230.751 302.5,221C 307.238,218.634 311.571,219.134 315.5,222.5C 316.657,247.457 316.824,272.457 316,297.5C 314.36,299.923 312.027,300.923 309,300.5C 306.04,300.959 303.874,299.959 302.5,297.5 Z"/></g>
<g><path style="opacity:1" fill="#3fbcd9" d="M 332.5,219.5 C 347.504,219.333 362.504,219.5 377.5,220C 381.41,223.925 381.41,227.925 377.5,232C 366.505,232.5 355.505,232.667 344.5,232.5C 344.5,239.833 344.5,247.167 344.5,254.5C 350.842,254.334 357.175,254.5 363.5,255C 366.167,258.333 366.167,261.667 363.5,265C 357.175,265.5 350.842,265.666 344.5,265.5C 344.5,273.167 344.5,280.833 344.5,288.5C 355.838,288.333 367.172,288.5 378.5,289C 381.122,292.535 381.122,296.035 378.5,299.5C 363.178,300.666 347.844,300.833 332.5,300C 331.692,299.692 331.025,299.192 330.5,298.5C 329.343,273.209 329.176,247.876 330,222.5C 331.045,221.627 331.878,220.627 332.5,219.5 Z"/></g>
<g><path style="opacity:1" fill="#5cd3e3" d="M 129.5,228.5 C 132.287,234.075 135.121,239.741 138,245.5C 138.169,257.007 138.669,268.341 139.5,279.5C 141.665,287.141 146.665,289.974 154.5,288C 157.106,287.208 159.106,285.708 160.5,283.5C 163.818,286.757 167.151,290.091 170.5,293.5C 169.043,295.785 167.043,297.618 164.5,299C 159.844,300.844 155.01,301.677 150,301.5C 136.899,302.06 128.566,296.06 125,283.5C 124.333,267.833 124.333,252.167 125,236.5C 125.754,233.316 127.254,230.649 129.5,228.5 Z"/></g>
<g><path style="opacity:1" fill="#46435f" d="M 212.5,238.5 C 216.886,249.011 220.219,260.011 222.5,271.5C 216.5,271.5 210.5,271.5 204.5,271.5C 206.753,260.406 209.42,249.406 212.5,238.5 Z"/></g>
<g><path style="opacity:1" fill="#544c6e" d="M 139.5,248.5 C 142.001,253.506 145.001,258.173 148.5,262.5C 148.317,264.936 148.984,267.103 150.5,269C 154.486,269.499 158.486,269.666 162.5,269.5C 162.778,274.343 162.111,279.01 160.5,283.5C 159.106,285.708 157.106,287.208 154.5,288C 146.665,289.974 141.665,287.141 139.5,279.5C 139.5,269.167 139.5,258.833 139.5,248.5 Z"/></g>
<g><path style="opacity:1" fill="#4285a2" d="M 302.5,297.5 C 301.833,281.833 301.167,266.167 300.5,250.5C 300.783,249.711 301.283,249.044 302,248.5C 302.5,264.83 302.667,281.163 302.5,297.5 Z"/></g>
<g><path style="opacity:1" fill="#3fbedb" d="M 171.5,293.5 C 171.167,293.5 170.833,293.5 170.5,293.5C 167.151,290.091 163.818,286.757 160.5,283.5C 162.111,279.01 162.778,274.343 162.5,269.5C 158.486,269.666 154.486,269.499 150.5,269C 148.984,267.103 148.317,264.936 148.5,262.5C 149.028,261.279 149.695,260.113 150.5,259C 158.5,258.333 166.5,258.333 174.5,259C 175,259.5 175.5,260 176,260.5C 176.667,267.833 176.667,275.167 176,282.5C 175.366,286.581 173.866,290.248 171.5,293.5 Z"/></g>
<g><path style="opacity:1" fill="#827670" d="M 43.5,399.5 C 184.833,399.5 326.167,399.5 467.5,399.5C 467.5,400.167 467.167,400.5 466.5,400.5C 428.833,400.5 391.167,400.5 353.5,400.5C 289.167,400.5 224.833,400.5 160.5,400.5C 160.5,407.167 160.5,413.833 160.5,420.5C 160.5,428.5 160.5,436.5 160.5,444.5C 160.167,444.5 159.833,444.5 159.5,444.5C 159.5,429.833 159.5,415.167 159.5,400.5C 121.167,400.5 82.8333,400.5 44.5,400.5C 43.8333,400.5 43.5,400.167 43.5,399.5 Z"/></g>
<g><path style="opacity:1" fill="#fedd57" d="M 44.5,400.5 C 82.8333,400.5 121.167,400.5 159.5,400.5C 159.5,415.167 159.5,429.833 159.5,444.5C 140.174,445.324 125.174,453.657 114.5,469.5C 94.8902,457.231 77.3902,442.231 62,424.5C 55.4144,416.973 49.581,408.973 44.5,400.5 Z"/></g>
<g><path style="opacity:1" fill="#463f5b" d="M 353.5,400.5 C 353.5,407.167 353.5,413.833 353.5,420.5C 289.167,420.5 224.833,420.5 160.5,420.5C 160.5,413.833 160.5,407.167 160.5,400.5C 224.833,400.5 289.167,400.5 353.5,400.5 Z"/></g>
<g><path style="opacity:1" fill="#fedd57" d="M 353.5,400.5 C 391.167,400.5 428.833,400.5 466.5,400.5C 449.813,425.023 429.48,446.19 405.5,464C 402.941,465.777 400.274,467.277 397.5,468.5C 390.264,456.361 379.598,448.861 365.5,446C 361.534,445.172 357.534,444.672 353.5,444.5C 353.5,436.5 353.5,428.5 353.5,420.5C 353.5,413.833 353.5,407.167 353.5,400.5 Z"/></g>
<g><path style="opacity:1" fill="#574d70" d="M 160.5,420.5 C 224.833,420.5 289.167,420.5 353.5,420.5C 353.5,428.5 353.5,436.5 353.5,444.5C 289.167,444.5 224.833,444.5 160.5,444.5C 160.5,436.5 160.5,428.5 160.5,420.5 Z"/></g>
<g><path style="opacity:1" fill="#6c6888" d="M 159.5,444.5 C 159.833,444.5 160.167,444.5 160.5,444.5C 224.833,444.5 289.167,444.5 353.5,444.5C 357.534,444.672 361.534,445.172 365.5,446C 379.598,448.861 390.264,456.361 397.5,468.5C 392.848,472.831 387.514,476.165 381.5,478.5C 297.5,478.5 213.5,478.5 129.5,478.5C 123.995,476.251 118.995,473.251 114.5,469.5C 125.174,453.657 140.174,445.324 159.5,444.5 Z"/></g>
<g><path style="opacity:1" fill="#fedd58" d="M 129.5,478.5 C 213.5,478.5 297.5,478.5 381.5,478.5C 349.553,496.927 315.219,507.927 278.5,511.5C 263.167,511.5 247.833,511.5 232.5,511.5C 195.781,507.927 161.447,496.927 129.5,478.5 Z"/></g>
</svg>
